<svg width="81" height="45" viewBox="0 0 81 45" fill="none" xmlns="http://www.w3.org/2000/svg">
<path d="M79.9948 3.68643C79.6446 3.63804 79.3 3.57443 78.9442 3.54816C78.3536 3.49561 77.763 3.4403 77.171 3.42786C76.1663 3.40712 75.1713 3.49008 74.2527 3.92289C73.2133 4.40824 72.6268 5.2531 72.4295 6.35931C72.3422 6.84178 72.2957 7.33069 72.2905 7.82089C72.2738 9.40138 72.2905 10.9819 72.2905 12.5637C72.2905 12.7905 72.2905 12.7905 72.5212 12.7905C74.3653 12.7905 76.2108 12.7905 78.0548 12.7905C78.2272 12.7905 78.2688 12.8417 78.2674 13.0062C78.26 14.0405 78.26 15.0744 78.2674 16.1078C78.2674 16.2778 78.216 16.3193 78.0507 16.3179C76.4387 16.3179 74.828 16.3179 73.216 16.3179C73.0006 16.3179 72.7839 16.2986 72.5685 16.2958C72.2905 16.2958 72.2905 16.2958 72.2905 16.5641V31.0263C72.2905 31.2573 72.2905 31.2573 72.517 31.2573C73.3661 31.2573 74.2166 31.2573 75.0671 31.2573C75.2269 31.2573 75.2616 31.3084 75.2616 31.4564C75.2561 32.4787 75.2561 33.501 75.2616 34.5233C75.2616 34.6754 75.2199 34.7211 75.0643 34.7211C71.7699 34.7211 68.475 34.7211 65.1796 34.7211C65.017 34.7211 64.9753 34.6727 64.9767 34.515C64.9823 33.4918 64.9823 32.469 64.9767 31.4467C64.9767 31.3084 65.0129 31.2573 65.1629 31.2573C66.019 31.2642 66.8736 31.2573 67.7297 31.2573C67.8686 31.2573 67.92 31.2255 67.92 31.0747C67.92 26.2047 67.92 21.3355 67.92 16.4673C67.92 16.2612 67.8103 16.2792 67.6782 16.2792H58.4537C58.2035 16.2792 57.9534 16.2861 57.7032 16.2792C57.5504 16.2723 57.5073 16.3262 57.5073 16.4783C57.5073 18.2082 57.5073 19.9352 57.5073 21.6678V31.036C57.5073 31.2808 57.5073 31.2835 57.7533 31.2808C58.5801 31.2808 59.4084 31.2697 60.2352 31.2531C60.3992 31.2531 60.4562 31.2891 60.4548 31.4633C60.4464 32.4907 60.4478 33.5195 60.4548 34.5469C60.4548 34.692 60.4228 34.7473 60.2616 34.7473C56.9496 34.7473 53.638 34.7473 50.3269 34.7473C50.188 34.7473 50.1338 34.7155 50.1338 34.5634C50.1403 33.5199 50.1403 32.4755 50.1338 31.4301C50.1338 31.2918 50.181 31.2531 50.3158 31.2545C51.176 31.2669 52.0376 31.2739 52.8978 31.2808C53.1327 31.2808 53.1327 31.2808 53.1327 31.054C53.1327 26.2079 53.1327 21.3609 53.1327 16.5129C53.1327 16.282 53.1327 16.2806 52.902 16.2806H48.3717C47.4934 16.2806 46.6151 16.2806 45.7313 16.2806H45.509C45.5395 16.3331 45.5465 16.3608 45.5646 16.3746C46.2524 16.9277 46.6596 17.6717 47.0015 18.4571C47.4972 19.6207 47.8247 20.8483 47.9742 22.1034C48.1019 23.0171 48.141 23.9409 48.091 24.862C47.9242 27.416 47.1404 29.7639 45.5382 31.7924C44.2347 33.4434 42.5198 34.4874 40.4701 34.981C39.8114 35.1333 39.1402 35.2258 38.4648 35.2576C37.2274 35.3348 35.9862 35.1901 34.8003 34.8303C33.6206 34.463 32.5218 33.876 31.5623 33.1005L31.3261 32.9166C31.3261 33.012 31.3122 33.0687 31.3122 33.124C31.3122 35.8379 31.3122 38.5518 31.3122 41.2657C31.3122 41.4247 31.3581 41.4731 31.5193 41.4717C32.3739 41.4717 33.2299 41.4717 34.086 41.4717C34.236 41.4717 34.2861 41.509 34.2847 41.6653C34.2773 42.6941 34.2773 43.7224 34.2847 44.7502C34.2847 44.8996 34.2347 44.9341 34.0929 44.9328C30.7809 44.9328 27.4693 44.9328 24.1582 44.9328C24.0081 44.9328 23.972 44.8844 23.972 44.7419C23.9776 43.715 23.9776 42.6872 23.972 41.6584C23.972 41.5132 24.0123 41.4689 24.1596 41.4703C25.0156 41.4703 25.8717 41.4703 26.7263 41.4703C26.8917 41.4703 26.9459 41.4302 26.9459 41.2588C26.9459 33.0009 26.9459 24.7435 26.9459 16.4866C26.9459 16.3276 26.8986 16.2778 26.7388 16.2778C24.8554 16.2778 22.9719 16.2778 21.0885 16.2778C21.0252 16.2794 20.963 16.295 20.9065 16.3235C20.8501 16.352 20.8006 16.3926 20.7619 16.4424C19.7335 17.5126 18.7043 18.5824 17.6741 19.6518C16.4252 20.9479 15.1745 22.2431 13.922 23.5373C13.8066 23.6562 13.7955 23.7309 13.9025 23.8637C15.2922 25.5589 16.6555 27.2639 18.0423 28.9536C18.6927 29.7473 19.3973 30.4898 20.2658 31.0595C21.0644 31.604 22.0216 31.8699 22.9881 31.8159C23.286 31.7919 23.5823 31.7526 23.8761 31.6984C24.0012 31.679 24.0471 31.6984 24.0471 31.8366C24.0471 32.8046 24.0471 33.7725 24.0471 34.7404C24.0471 34.887 23.9678 34.9133 23.8608 34.9423C23.0936 35.1441 22.3015 35.2372 21.5081 35.2189C19.5751 35.1954 17.9534 34.4321 16.5318 33.1752C15.6035 32.3566 14.8378 31.3969 14.0804 30.4276C12.4221 28.3065 10.7591 26.1918 9.09153 24.0835C8.95256 23.8982 8.95256 23.7945 9.11654 23.6244C11.2307 21.4424 13.3471 19.2595 15.4659 17.0757C15.6591 16.8766 15.8536 16.6802 16.0454 16.4811C16.0912 16.4341 16.1315 16.3843 16.201 16.3041C16.0954 16.2944 16.0273 16.2834 15.9592 16.2834C14.9865 16.2834 14.0137 16.2834 13.0409 16.2834C12.8742 16.2834 12.8242 16.2391 12.8255 16.069C12.833 15.0421 12.833 14.0143 12.8255 12.9855C12.8255 12.8279 12.8672 12.7795 13.0298 12.7808C18.9637 12.7808 24.898 12.7808 30.8328 12.7808C31.0023 12.7808 31.0482 12.8265 31.0454 12.9952C31.037 13.6962 31.0454 14.3987 31.0454 15.0997V15.3334C31.0893 15.3088 31.1307 15.2801 31.1691 15.2477C32.0974 14.2327 33.2786 13.652 34.5793 13.2745C35.3443 13.0493 36.131 12.9052 36.9264 12.8444C37.3739 12.8113 37.8228 12.7822 38.2716 12.7808C43.1382 12.7808 48.0053 12.7808 52.8728 12.7808C53.1354 12.7808 53.1354 12.7808 53.1354 12.5195C53.1354 10.7399 53.116 8.96028 53.1452 7.18067C53.166 5.87534 53.3884 4.59905 54.0262 3.43201C54.8294 1.95937 56.0662 1.01356 57.6616 0.51162C58.5393 0.23346 59.4509 0.0748445 60.3714 0.0400991C60.435 0.0320436 60.4977 0.0186296 60.559 0H61.6207C61.6601 0.0163963 61.7011 0.0289017 61.743 0.0373351C62.2016 0.0746696 62.6616 0.0954093 63.1188 0.147954C63.7511 0.219858 64.3792 0.319418 65.0101 0.398235C65.1379 0.414828 65.1768 0.457693 65.1755 0.583524C65.1699 1.55699 65.1699 2.52999 65.1755 3.50253C65.1755 3.6408 65.1324 3.6809 64.9892 3.6574C64.6305 3.58816 64.2682 3.53876 63.9039 3.50944C63.1799 3.46934 62.4531 3.42647 61.7305 3.44445C61.225 3.46372 60.7227 3.53321 60.231 3.65186C59.1374 3.90906 58.3133 4.52577 57.8686 5.57943C57.6321 6.15887 57.5135 6.77928 57.5198 7.40467C57.5115 9.12344 57.5198 10.8422 57.5198 12.561C57.5198 12.7864 57.5198 12.7864 57.7449 12.7864H67.6963C67.9173 12.7864 67.9173 12.7864 67.9173 12.5582C67.9256 10.7606 67.9312 8.96304 67.9437 7.16546C67.9486 6.39835 68.0514 5.63497 68.2494 4.89358C68.7191 3.14439 69.7196 1.80312 71.3497 0.965165C72.4767 0.388555 73.6941 0.135511 74.9489 0.0456313C75.0782 0.035952 75.2074 0.0152103 75.338 0H76.4373C76.4936 0.0174907 76.5512 0.0304382 76.6096 0.0387171C76.8875 0.0553102 77.1543 0.0511614 77.4225 0.0857304C78.2841 0.193586 79.1443 0.315268 80.0045 0.43142L79.9948 3.68643ZM31.3066 24.3131C31.3066 25.9378 31.3066 27.5625 31.3066 29.1873C31.291 29.4371 31.3698 29.6837 31.5276 29.8787C31.7325 30.1314 31.9714 30.3547 32.2377 30.5424C33.5227 31.3875 35.0236 31.8495 36.5637 31.874C37.1511 31.8815 37.7379 31.8375 38.3175 31.7426C39.6221 31.5484 40.8145 30.8978 41.6805 29.9077C42.9242 28.4973 43.4995 26.8062 43.626 24.9616C43.6873 24.0741 43.6477 23.1825 43.5079 22.3039C43.3689 21.2978 43.0691 20.3203 42.6199 19.4084C41.9834 18.1736 41.0787 17.2071 39.7822 16.6553C38.4648 16.0939 37.0918 16.0469 35.7035 16.3249C34.2152 16.6221 32.9715 17.402 31.8264 18.3506C31.6555 18.4894 31.5193 18.6659 31.4286 18.866C31.338 19.0661 31.2953 19.2845 31.3039 19.5038C31.3136 21.1092 31.3066 22.7104 31.3066 24.3131Z" fill="#0063A3"/>
<path d="M79.995 0.439235C79.1348 0.323083 78.2746 0.2014 77.413 0.093545C77.1448 0.058976 76.871 0.0631227 76.6001 0.0465296C76.5417 0.0382507 76.484 0.0253032 76.4277 0.0078125H79.995V0.439235Z" fill="#0063A3"/>
<path d="M7.44024 15.9162V30.9039C7.44373 30.9536 7.44373 31.0035 7.44024 31.0532C7.4194 31.2109 7.48193 31.2634 7.64452 31.262C8.50611 31.2537 9.36631 31.262 10.2279 31.2551C10.3669 31.2551 10.4113 31.2883 10.4113 31.4307C10.4058 32.4687 10.4058 33.5076 10.4113 34.5475C10.4113 34.6857 10.3585 34.7231 10.2265 34.7231C6.90893 34.7231 3.59181 34.7231 0.275153 34.7231C0.136187 34.7231 0.0958867 34.6761 0.0972764 34.5419C0.0972764 33.5076 0.0972764 32.4738 0.0972764 31.4404C0.0972764 31.2925 0.144525 31.2551 0.289049 31.2565C1.15481 31.2565 2.02196 31.2565 2.8891 31.2565C3.0378 31.2565 3.07393 31.2123 3.07393 31.0684C3.07393 22.1211 3.07393 13.1732 3.07393 4.22495C3.07393 4.06316 3.01695 4.03136 2.87243 4.03274C1.97888 4.03274 1.08394 4.03274 0.188994 4.03274C0.0500279 4.03274 0 3.99126 0 3.84469C0.00741152 2.81684 0.00741152 1.78898 0 0.761134C0 0.600734 0.0541969 0.570312 0.201501 0.570312C2.54632 0.570312 4.89114 0.570312 7.23596 0.570312C7.40689 0.570312 7.44858 0.617327 7.44858 0.784641C7.44117 5.83171 7.43839 10.8756 7.44024 15.9162Z" fill="#0063A3"/>
</svg>
